<?xml version="1.0" encoding="utf-8"?><svg viewBox="0 0 43 41" xmlns="http://www.w3.org/2000/svg" xmlns:xlink="http://www.w3.org/1999/xlink"><style>:root>svg{display:none}:root>svg:target{display:block}</style><svg fill="none" viewBox="0 0 24 24" id="alert" xmlns="http://www.w3.org/2000/svg"><path fill-rule="evenodd" clip-rule="evenodd" d="M23 21L12 2 1 21h22zm-12-3v-2h2v2h-2zm0-4h2v-4h-2v4z" fill="#FF8D00"/></svg><svg fill="none" viewBox="0 0 40 40" id="announcements" xmlns="http://www.w3.org/2000/svg"><path d="M34.063 23.119v.23l.102.209 3.928 8.042h0a.864.864 0 01-.775 1.245H24.809v1.181a4.973 4.973 0 11-9.947 0v-1.181H2.364a.864.864 0 01-.775-1.244V31.6l3.929-8.043.101-.207v-7.906h0v-.01a13.91 13.91 0 018.894-13.128l.008-.003.007-.003h0l.004-.002.018-.007.084-.032a18.327 18.327 0 011.533-.493c1.004-.274 2.298-.536 3.543-.536 1.25 0 2.612.263 3.69.54a22.373 22.373 0 011.756.53l.017.007a14.143 14.143 0 018.891 13.128s0 0 0 0v7.684z" stroke="#46B843" stroke-width="2"/></svg><svg fill="none" viewBox="0 0 15 10" id="arrow" xmlns="http://www.w3.org/2000/svg"><path fill-rule="evenodd" clip-rule="evenodd" d="M14.835 4.608a.55.55 0 010 .785l-4.513 4.445a.57.57 0 01-.797 0 .55.55 0 010-.786l3.549-3.497H.564A.56.56 0 010 5a.56.56 0 01.564-.556h12.51L9.524.95a.55.55 0 010-.786.567.567 0 01.798 0l4.513 4.445z" fill="#4CB649"/></svg><svg fill="none" viewBox="0 0 13 12" id="comment" xmlns="http://www.w3.org/2000/svg"><path d="M3.068 9.333v-.75H1.674V1.417h9.652v7.166H6.519l-.157.079-3.294 1.634v-.963zm0 1.584s0 0 0 0v0z" stroke="#889099" stroke-width="1.5"/></svg><svg fill="none" viewBox="0 0 14 28" id="f" xmlns="http://www.w3.org/2000/svg"><path d="M9.083 28V15.229h4.128l.617-4.978H9.082V7.077c0-1.446.382-2.419 2.378-2.419H14V.192C13.556.128 12.053 0 10.303 0 6.643 0 4.14 2.316 4.14 6.578v3.673H0v4.978h4.14V28h4.943z" fill="#323642"/></svg><svg fill="none" viewBox="0 0 34 22" id="gp" xmlns="http://www.w3.org/2000/svg"><path fill-rule="evenodd" clip-rule="evenodd" d="M21.048 9.56c.1.618.202 1.234.202 1.851 0 3.187-.91 5.757-2.934 7.608C16.392 20.972 13.963 22 10.826 22c-3.035 0-5.565-1.028-7.69-3.187S0 14.084 0 11c0-3.084 1.012-5.654 3.137-7.813S7.792 0 10.827 0c2.834 0 5.262.925 7.286 2.878L15.18 5.758c-1.114-1.13-2.631-1.645-4.352-1.645-1.821 0-3.44.72-4.756 2.056-1.315 1.44-2.023 3.084-2.023 4.935 0 1.953.708 3.598 2.023 4.934 1.316 1.337 2.935 2.056 4.756 2.056 1.518 0 2.834-.41 4.048-1.233 1.214-.925 1.923-2.056 2.125-3.495h-6.173V9.56h10.22zM34 12.749h-3.036v3.187h-3.137v-3.187H24.69V9.56h3.137V6.374h3.137V9.56H34v3.187z" fill="#323642"/></svg><svg fill="none" viewBox="0 0 28 28" id="li" xmlns="http://www.w3.org/2000/svg"><path fill-rule="evenodd" clip-rule="evenodd" d="M26.271 0H2.247C1.097 0 0 .781 0 1.897v24.149C0 27.16 1.097 28 2.247 28h24.024c1.15 0 1.729-.839 1.729-1.954V1.896C28 .782 27.422 0 26.271 0z" fill="#323642"/><path fill-rule="evenodd" clip-rule="evenodd" d="M8.273 23.545H4.455V10.818h3.818v12.727zM6.58 8.91h-.029c-1.428 0-2.354-.928-2.354-2.15 0-1.248.953-2.174 2.41-2.174 1.457 0 2.353.913 2.38 2.161 0 1.223-.923 2.163-2.407 2.163zm17.6 14.636h-4.454v-6.88c0-1.712-.578-2.88-2.117-2.88-1.178 0-1.883.788-2.19 1.548-.114.272-.147.652-.147 1.031v7.181h-4.207s.055-11.454 0-12.727h4.207v1.732c.636-.867 1.66-2.104 3.92-2.104 2.803 0 4.989 1.818 4.989 5.73v7.37zm-8.886-10.954a.703.703 0 01.028-.04v.04h-.028z" fill="#fff"/></svg><svg fill="none" viewBox="0 0 30 30" id="reddit" xmlns="http://www.w3.org/2000/svg"><path d="M14.657.01C23.21-.182 30.22 6.804 29.993 15.434c-.206 7.868-6.662 14.651-15.172 14.565C6.713 29.918.044 23.348.003 15 .053 6.663 6.683.191 14.657.01z" fill="#323642"/><path fill-rule="evenodd" clip-rule="evenodd" d="M25.57 16.834c.795-.589 1.277-1.353 1.181-2.382-.095-1.01-.605-1.76-1.529-2.17-1-.441-1.957-.317-2.815.384-.098.08-.158.083-.258.018-1.591-1.05-3.345-1.637-5.235-1.829l-.364-.038-.303-.031.747-2.323.469-1.46.093.013c.057.008.108.016.159.027l.811.175c.694.151 1.389.302 2.085.444.199.04.298.11.354.32a2.016 2.016 0 002.252 1.465c1.371-.222 2.116-1.7 1.451-2.883-.532-.946-2.184-1.512-3.248-.274-.104.122-.193.15-.348.117-.913-.2-1.828-.395-2.742-.59L17.308 5.6c-.522-.112-.765.03-.926.541-.15.479-.302.957-.453 1.436-.302.958-.605 1.917-.906 2.876-.039.124-.072.215-.239.214-.847-.006-1.681.114-2.509.289-1.484.314-2.865.875-4.12 1.731-.115.078-.185.047-.29-.002a13.822 13.822 0 01-.348-.169c-.311-.154-.623-.31-.953-.396-1.565-.415-3.423.857-3.103 2.947.125.822.614 1.417 1.287 1.868.111.074.135.14.115.262-.188 1.13-.07 2.228.386 3.283.649 1.5 1.765 2.585 3.121 3.44 1.548.978 3.265 1.473 5.065 1.7 1.574.196 3.14.121 4.687-.227 2.227-.503 4.209-1.458 5.735-3.209 1.21-1.388 1.746-3.002 1.497-4.844-.034-.245.025-.364.216-.506zm-5.294.077c.003.831-.743 1.575-1.582 1.576-.873 0-1.587-.734-1.588-1.634 0-.824.735-1.546 1.58-1.549.869-.002 1.586.722 1.59 1.607zm-1.207 4.59c.182-.21.135-.461-.032-.627-.233-.23-.533-.295-.766-.162-.053.03-.102.065-.152.099-.04.027-.08.054-.12.079-1.607.977-3.287 1.129-5.027.405a5.892 5.892 0 01-.769-.414c-.084-.05-.167-.101-.252-.15-.25-.146-.564-.095-.803.147-.158.16-.178.432-.02.656.09.126.21.24.337.328 1.088.764 2.31 1.083 3.726 1.099l.155-.01c.144-.01.323-.022.502-.039.88-.08 1.718-.312 2.477-.768.277-.169.53-.398.744-.643zm-5.977-4.594c.004.804-.752 1.578-1.54 1.58-.895.001-1.638-.718-1.641-1.588-.002-.86.726-1.594 1.58-1.594.866 0 1.598.73 1.601 1.602z" fill="#fff"/></svg><svg fill="none" viewBox="0 0 20 20" id="search" xmlns="http://www.w3.org/2000/svg"><circle cx="8.5" cy="8.5" r="7.5" stroke="#22252E" stroke-width="2" stroke-linecap="round" stroke-linejoin="round"/><path d="M19 19l-5.2-5.2" stroke="#22252E" stroke-width="2" stroke-linecap="round" stroke-linejoin="round"/></svg><svg fill="none" viewBox="0 0 43 41" id="share" xmlns="http://www.w3.org/2000/svg"><mask id="ja" fill="#fff"><path fill-rule="evenodd" clip-rule="evenodd" d="M29.22 13.132C35.666 19.576 39.81 28.32 40.314 38h-3.663C35.655 20.637 21.714 6.678 4.37 5.674v-3.64c9.675.507 18.401 4.643 24.85 11.098zM3.634 7.64c16.822.652 30.404 14.25 31.05 31.094.027.69.582 1.265 1.274 1.265h5.16c.69 0 1.25-.575 1.228-1.265-.33-10.527-4.745-20.052-11.713-27.017C23.664 4.741 14.157.333 3.634.001A1.23 1.23 0 002.37 1.23v5.135c0 .69.572 1.247 1.265 1.275zm-.01 5.97c6.777.317 12.89 3.212 17.387 7.717 4.51 4.512 7.392 10.63 7.717 17.407A1.216 1.216 0 0127.512 40h-5.168c-.69 0-1.247-.575-1.292-1.26-.303-4.547-2.21-8.797-5.448-12.025a18.611 18.611 0 00-11.98-5.455c-.687-.047-1.254-.605-1.254-1.295v-5.132c0-.693.567-1.252 1.255-1.223zm15.971 9.13c-3.974-3.98-9.304-6.597-15.226-7.079v3.653c4.77.46 9.222 2.55 12.649 5.986a20.64 20.64 0 015.98 12.7h3.679c-.486-5.93-3.094-11.27-7.08-15.26h-.002z"/></mask><path d="M29.22 13.133l-1.414 1.414 1.414-1.415zm0-.001l-1.416 1.413h.001l1.414-1.413zM40.313 38v2h2.107l-.11-2.104-1.997.104zm-3.663 0l-1.997.115.109 1.885h1.888v-2zM4.37 5.674h-2V7.56l1.884.11.116-1.997zm0-3.64L4.474.035 2.37-.074v2.107h2zm30.314 36.701l-1.998.077v.003l1.998-.08zM3.634 7.641l-.079 1.998h.002l.078-1.998zm38.713 31.094l-2 .063v.002l2-.065zM30.634 11.718l-1.415 1.414h.001l1.414-1.414zM3.634.001L3.57 2h.001l.064-2zm17.378 21.327l-1.416 1.413h.001l1.415-1.413zM3.625 13.61l.093-1.998h-.006l-.087 1.998zm25.104 25.124l1.998-.094v-.002l-1.998.096zm-7.677.005l1.996-.13v-.002l-1.996.132zm-5.448-12.025l-1.416 1.412.004.005 1.412-1.417zM3.624 21.26l-.137 1.996h.004l.134-1.996zm.746-5.598l.162-1.993-2.162-.176v2.17h2zm15.226 7.079l-1.415 1.413.003.003 1.412-1.416zM4.37 19.315h-2v1.816l1.807.175.193-1.991zM17.019 25.3l-1.417 1.412.004.004 1.413-1.416zm5.98 12.7l-1.992.19.173 1.81h1.818v-2zm3.679 0v2h2.17l-.177-2.164-1.993.163zm-7.08-15.26l1.414-1.413-.002-.002-1.413 1.416zm11.037-11.023h-.002l-2.828 2.828h.001l2.828-2.828zm11.677 26.178c-.532-10.194-4.896-19.399-11.678-26.178l-2.828 2.829c6.11 6.107 10.033 14.389 10.511 23.558l3.995-.209zM36.652 40h3.662v-4h-3.663v4zM4.253 7.67c16.329.946 29.463 14.094 30.4 30.445l3.994-.23C37.594 19.51 22.845 4.74 4.485 3.678l-.231 3.994zM2.37 2.034v3.64h4v-3.64h-4zm28.264 9.685C23.85 4.927 14.663.57 4.474.036l-.21 3.994c9.163.48 17.428 4.396 23.54 10.515l2.83-2.827zm6.049 26.94C35.998 20.772 21.58 6.336 3.713 5.643L3.556 9.64c15.777.612 28.524 13.37 29.129 29.173l3.997-.153zM35.959 38a.7.7 0 01.724.656l-3.997.159C32.753 40.493 34.11 42 35.959 42v-4zm5.16 0h-5.16v4h5.16v-4zm-.771.8a.77.77 0 01.771-.8v4a3.23 3.23 0 003.227-3.33l-3.998.13zM29.22 13.133c6.623 6.62 10.814 15.666 11.128 25.665l3.998-.125c-.347-11.057-4.985-21.06-12.298-28.37l-2.828 2.83zM3.571 2c9.994.315 19.023 4.5 25.648 11.132l2.83-2.827C24.734 2.982 14.75-1.65 3.698-1.998L3.57 2zm.799-.77a.77.77 0 01-.8.77l.13-3.998A3.23 3.23 0 00.37 1.23h4zm0 5.136V1.23h-4v5.135h4zm-.656-.724a.7.7 0 01.656.724h-4c0 1.84 1.5 3.206 3.185 3.273l.159-3.997zm18.713 14.273c-4.834-4.842-11.412-7.96-18.709-8.302l-.187 3.995c6.258.293 11.905 2.965 16.066 7.133l2.83-2.826zm8.3 18.724c-.35-7.293-3.453-13.875-8.3-18.725l-2.83 2.828c4.173 4.174 6.834 9.827 7.135 16.089l3.995-.192zM27.512 42c1.807 0 3.302-1.505 3.215-3.359l-3.995.188a.784.784 0 01.78-.829v4zm-5.168 0h5.168v-4h-5.168v4zm-3.288-3.129c.107 1.63 1.441 3.13 3.288 3.13v-4c.228 0 .41.097.52.206a.62.62 0 01.184.402l-3.992.262zm-4.864-10.74c2.89 2.88 4.594 6.673 4.864 10.742l3.991-.265c-.334-5.026-2.445-9.734-6.03-13.309l-2.825 2.833zM3.491 23.257c4.034.27 7.81 1.976 10.697 4.871l2.833-2.824a20.611 20.611 0 00-13.263-6.038l-.267 3.991zM.37 19.966c0 1.835 1.478 3.176 3.117 3.29l.275-3.99a.673.673 0 01.608.7h-4zm0-5.133v5.132h4v-5.132h-4zm3.342-3.22C1.845 11.53.37 13.042.37 14.832h4c0 .405-.341.797-.833.776l.175-3.997zm.495 6.043c5.43.442 10.322 2.84 13.974 6.498l2.83-2.826c-4.295-4.303-10.063-7.137-16.48-7.66l-.324 3.988zm2.163 1.659v-3.653h-4v3.653h4zm12.065 4.574a22.608 22.608 0 00-13.873-6.565l-.385 3.982a18.608 18.608 0 0111.425 5.407l2.833-2.824zm6.554 13.921a22.64 22.64 0 00-6.558-13.925l-2.825 2.832a18.64 18.64 0 015.401 11.473l3.982-.38zM26.678 36h-3.68v4h3.68v-4zm-8.495-11.844c3.664 3.666 6.056 8.567 6.501 14.008l3.987-.327c-.526-6.42-3.35-12.197-7.66-16.51l-2.828 2.829zm.001 0v.002l2.826-2.832-.001-.001-2.825 2.832z" fill="#46B843" mask="url(#ja)"/><circle cx="6.717" cy="34.783" r="5.217" stroke="#46B843" stroke-width="2"/></svg><svg fill="none" viewBox="0 0 28 23" id="tw" xmlns="http://www.w3.org/2000/svg"><path d="M28 2.721c-1.03.462-2.136.775-3.298.915A5.822 5.822 0 0027.227.425a11.503 11.503 0 01-3.65 1.41A5.698 5.698 0 0019.384 0c-3.172 0-5.744 2.601-5.744 5.807 0 .455.051.899.15 1.324-4.774-.243-9.006-2.555-11.84-6.07a5.814 5.814 0 00-.776 2.92 5.823 5.823 0 002.555 4.834 5.696 5.696 0 01-2.602-.729v.073c0 2.813 1.98 5.16 4.607 5.695-.482.131-.989.204-1.514.204-.37 0-.73-.038-1.081-.108.731 2.309 2.852 3.988 5.364 4.034a11.443 11.443 0 01-7.133 2.482c-.464 0-.92-.028-1.37-.08A16.105 16.105 0 008.804 23c10.567 0 16.342-8.85 16.342-16.526l-.019-.752a11.542 11.542 0 002.873-3z" fill="#323642"/></svg><svg fill="none" viewBox="0 0 14 14" id="x" xmlns="http://www.w3.org/2000/svg"><path d="M14 1.41L12.59 0 7 5.59 1.41 0 0 1.41 5.59 7 0 12.59 1.41 14 7 8.41 12.59 14 14 12.59 8.41 7 14 1.41z" fill="#889099"/></svg><svg fill="none" viewBox="0 0 42 29" id="youtube" xmlns="http://www.w3.org/2000/svg"><path fill-rule="evenodd" clip-rule="evenodd" d="M41.429 6.195A6.193 6.193 0 0035.237 0H6.191A6.193 6.193 0 000 6.195v16.61A6.193 6.193 0 006.191 29h29.046a6.193 6.193 0 006.192-6.195V6.195z" fill="#323642"/><path fill-rule="evenodd" clip-rule="evenodd" d="M16.571 22.602V7l11.831 7.801-11.83 7.801z" fill="#fff"/></svg></svg>